<?xml version="1.0" standalone="no"?>
<!DOCTYPE svg PUBLIC "-//W3C//DTD SVG 20010904//EN"
 "http://www.w3.org/TR/2001/REC-SVG-20010904/DTD/svg10.dtd">
<svg version="1.0" xmlns="http://www.w3.org/2000/svg"
 width="757.000000pt" height="197.000000pt" viewBox="0 0 757.000000 197.000000"
 preserveAspectRatio="xMidYMid meet">

<g transform="translate(0.000000,197.000000) scale(0.100000,-0.100000)"
fill="#000000" stroke="none">
<path d="M80 1957 c-52 -26 -50 4 -47 -988 2 -896 3 -928 21 -948 l19 -21 947
0 947 0 19 21 c18 20 19 51 19 960 l0 938 -23 23 -23 23 -927 2 c-731 2 -932
0 -952 -10z m952 -547 c79 0 128 -4 128 -10 0 -5 -4 -10 -9 -10 -5 0 -36 -18
-70 -41 -76 -50 -93 -82 -150 -274 -23 -77 -46 -149 -51 -160 -5 -11 -14 -40
-21 -65 -6 -25 -31 -97 -55 -160 -23 -63 -45 -123 -48 -133 -20 -65 -82 40
-147 250 -5 18 -13 32 -17 32 -19 -3 -23 2 -12 16 10 12 8 25 -14 68 -14 30
-26 62 -26 72 0 26 -39 105 -52 105 -6 0 -8 6 -5 14 3 7 0 25 -8 38 -7 14 -12
38 -12 53 0 15 -6 31 -13 35 -7 4 -10 12 -6 18 8 13 -20 91 -40 113 -8 9 -37
19 -64 23 -105 14 -42 21 172 19 259 -1 238 0 238 -14 0 -6 -15 -10 -32 -8
-42 2 -84 -15 -97 -39 -11 -20 0 -75 24 -122 7 -14 18 -45 25 -70 7 -25 25
-70 40 -100 15 -30 36 -82 46 -115 10 -33 24 -67 31 -76 7 -8 13 -21 13 -27 0
-23 18 -12 33 21 43 95 127 376 127 425 0 42 -2 44 -65 84 -67 43 -77 63 -22
47 17 -5 89 -9 159 -9z m495 -18 c17 -9 50 -32 71 -50 l40 -32 21 26 c12 15
24 38 27 51 13 48 24 20 24 -59 0 -46 3 -125 6 -175 5 -107 -8 -123 -25 -30
-6 34 -14 74 -17 89 -8 41 -90 130 -146 159 -42 21 -118 25 -151 7 -56 -29
-113 -121 -103 -163 3 -13 2 -26 -3 -29 -23 -14 -31 -311 -12 -386 7 -25 16
-63 21 -85 12 -55 32 -91 66 -117 25 -21 40 -23 131 -23 113 0 129 7 187 79
30 36 31 42 31 131 0 97 8 121 38 109 21 -8 21 -17 1 -107 -26 -113 -64 -176
-129 -210 -33 -17 -57 -21 -145 -20 -58 0 -125 6 -148 12 -50 14 -116 59 -150
102 -13 16 -32 29 -43 29 -10 0 -19 7 -19 15 0 9 -10 29 -21 44 -29 39 -46
178 -31 258 14 82 20 103 30 117 5 6 13 22 17 36 20 66 163 194 253 226 52 18
140 17 179 -4z"/>
<path d="M420 1390 c0 -5 4 -10 9 -10 5 0 17 -22 26 -50 9 -27 21 -50 26 -50
12 0 91 51 101 65 4 5 2 13 -5 17 -9 6 -9 8 1 8 6 0 12 4 12 9 0 10 -32 7 -50
-4 -6 -3 -10 -2 -10 4 0 6 -18 8 -45 4 -29 -3 -45 -1 -45 6 0 6 -4 11 -10 11
-5 0 -10 -4 -10 -10z"/>
<path d="M965 1360 c-3 -5 -2 -10 4 -10 5 0 13 5 16 10 3 6 2 10 -4 10 -5 0
-13 -4 -16 -10z"/>
<path d="M998 1336 c-10 -7 -17 -24 -17 -37 1 -21 2 -21 6 -4 3 11 12 28 21
38 18 20 14 22 -10 3z"/>
<path d="M523 1287 c-24 -17 -41 -33 -38 -35 3 -3 14 3 26 13 17 17 22 17 29
5 8 -13 10 -13 11 0 1 8 1 19 0 23 -1 4 4 7 11 6 24 -3 38 1 38 11 0 19 -35 8
-77 -23z"/>
<path d="M500 1240 c-14 -11 -20 -20 -13 -20 6 0 15 5 18 10 3 6 11 10 16 10
6 0 7 -4 4 -10 -3 -6 1 -7 10 -3 9 3 13 9 8 12 -4 3 -10 9 -13 13 -3 4 -16 -2
-30 -12z"/>
<path d="M586 1225 c-11 -8 -15 -15 -10 -15 6 0 19 7 30 15 10 8 15 14 9 14
-5 0 -19 -6 -29 -14z"/>
<path d="M506 1191 c-13 -14 -14 -21 -5 -27 7 -4 18 1 26 11 26 36 9 49 -21
16z"/>
<path d="M591 1184 c-13 -14 -29 -23 -35 -21 -14 5 -46 -11 -46 -23 0 -5 15
-8 33 -7 20 2 31 8 29 16 -2 9 3 11 13 7 9 -3 13 -2 10 4 -3 6 5 14 19 20 29
11 32 16 13 23 -7 3 -24 -6 -36 -19z"/>
<path d="M635 1140 c3 -5 -3 -8 -13 -7 -19 1 -92 -40 -92 -52 0 -4 6 -15 13
-25 13 -17 15 -17 43 9 16 15 22 25 14 22 -8 -3 -24 -8 -35 -12 -13 -4 -7 4
15 23 19 17 38 28 42 26 4 -3 15 -1 24 4 15 8 15 10 0 15 -10 4 -14 3 -11 -3z"/>
<path d="M613 1097 c-4 -7 0 -8 13 -4 14 5 12 2 -6 -12 -14 -11 -25 -24 -25
-30 0 -6 -9 -17 -20 -25 -36 -26 -10 -26 28 0 28 19 41 22 55 15 14 -8 14 -11
2 -12 -8 -1 -21 -1 -29 0 -7 2 -10 -2 -7 -8 4 -5 -2 -15 -13 -20 -17 -10 -24
-49 -7 -44 18 7 80 42 73 43 -4 0 -3 9 3 19 8 16 6 21 -11 26 -17 6 -18 9 -7
22 11 14 8 13 -20 -1 -19 -10 -36 -16 -38 -14 -2 2 12 12 31 23 19 10 35 21
35 24 0 11 -50 9 -57 -2z m50 -92 c-3 -9 -8 -14 -10 -11 -3 3 -2 9 2 15 9 16
15 13 8 -4z"/>
<path d="M570 969 c0 -5 5 -7 10 -4 6 3 10 8 10 11 0 2 -4 4 -10 4 -5 0 -10
-5 -10 -11z"/>
<path d="M665 933 c-22 -13 -47 -28 -55 -33 -8 -4 -12 -11 -9 -14 3 -4 18 3
32 15 30 23 37 16 10 -10 -10 -9 -18 -27 -17 -41 2 -60 7 -63 48 -25 29 26 41
31 50 16 3 -5 -12 -20 -34 -35 -22 -14 -40 -29 -40 -31 0 -3 22 10 49 27 28
18 45 35 40 36 -6 3 -5 11 3 20 12 16 11 16 -6 2 -18 -14 -18 -13 -12 8 5 14
3 22 -4 22 -6 0 -8 5 -3 13 13 21 13 45 0 49 -6 3 -30 -6 -52 -19z m30 -3
c-10 -11 -21 -18 -23 -15 -3 3 3 12 14 20 27 20 30 18 9 -5z m-1 -76 c-43 -35
-65 -29 -26 7 18 16 38 27 44 23 6 -4 -1 -16 -18 -30z"/>
<path d="M610 930 c-9 -6 -10 -10 -3 -10 6 0 15 5 18 10 8 12 4 12 -15 0z"/>
<path d="M718 788 c-32 -21 -58 -43 -58 -48 0 -16 10 -12 64 27 28 20 53 38
55 39 1 2 1 7 0 12 -2 6 -30 -8 -61 -30z"/>
<path d="M745 756 c-58 -38 -80 -62 -67 -70 5 -3 24 10 42 29 19 19 39 35 44
35 6 0 -2 -11 -19 -25 -16 -13 -27 -24 -22 -25 14 0 87 52 87 63 0 7 -4 7 -12
-1 -20 -20 -32 -13 -13 8 25 28 17 25 -40 -14z"/>
<path d="M723 677 c-18 -12 -33 -29 -33 -37 0 -17 36 -68 43 -60 11 14 47 92
47 103 -1 15 -39 -34 -40 -50 0 -6 -4 -15 -10 -18 -18 -11 -10 31 10 55 32 37
29 38 -17 7z"/>
<path d="M1210 1220 c0 -5 7 -7 15 -4 8 4 15 8 15 10 0 2 -7 4 -15 4 -8 0 -15
-4 -15 -10z"/>
<path d="M1149 1192 c-22 -19 -28 -31 -21 -36 7 -4 12 -1 12 8 0 9 8 16 19 16
23 0 46 25 32 34 -6 4 -24 -6 -42 -22z"/>
<path d="M1205 1150 c-8 -13 5 -13 25 0 13 8 13 10 -2 10 -9 0 -20 -4 -23 -10z"/>
<path d="M1149 1133 c-13 -16 -12 -17 4 -4 16 13 21 21 13 21 -2 0 -10 -8 -17
-17z"/>
<path d="M1156 1100 c-27 -15 -58 -38 -70 -51 -23 -24 -11 -19 49 21 22 15 50
30 63 34 12 4 22 12 22 17 0 14 -11 10 -64 -21z"/>
<path d="M1193 1073 c9 -2 23 -2 30 0 6 3 -1 5 -18 5 -16 0 -22 -2 -12 -5z"/>
<path d="M1185 1040 c-3 -6 1 -7 9 -4 18 7 21 14 7 14 -6 0 -13 -4 -16 -10z"/>
<path d="M1094 1018 c-19 -23 -19 -23 1 -7 11 9 27 19 35 22 13 5 13 6 -1 6
-9 1 -24 -9 -35 -21z"/>
<path d="M1134 1017 c-36 -21 -77 -57 -72 -63 3 -3 12 1 19 8 8 8 31 24 52 37
20 12 37 25 37 27 0 7 -14 4 -36 -9z"/>
<path d="M1170 997 c-50 -26 -112 -71 -103 -74 6 -2 41 17 79 42 65 42 79 60
24 32z"/>
<path d="M1144 945 c-56 -34 -84 -59 -84 -77 0 -4 5 -8 10 -8 6 0 10 6 10 14
0 8 33 34 73 60 85 53 78 62 -9 11z"/>
<path d="M1134 866 c-46 -31 -50 -37 -46 -65 5 -37 18 -48 26 -23 4 10 29 28
56 40 28 12 50 28 50 37 0 8 -5 15 -11 15 -8 0 -8 5 1 15 23 28 -21 16 -76
-19z m11 -26 c-3 -5 -14 -10 -23 -9 -14 0 -13 2 3 9 27 11 27 11 20 0z"/>
<path d="M1184 775 c-18 -14 -18 -14 4 -8 12 3 22 9 22 14 0 12 -3 11 -26 -6z"/>
<path d="M1195 750 c-4 -6 1 -7 12 -4 12 4 9 -3 -10 -20 -15 -14 -25 -26 -22
-26 12 0 65 41 65 51 0 12 -37 12 -45 -1z"/>
<path d="M1218 694 c-33 -17 -36 -34 -8 -34 11 0 20 -6 20 -14 0 -14 29 -37
64 -49 16 -6 17 -5 6 8 -7 8 -18 15 -25 15 -6 0 -12 14 -13 30 -4 69 -2 67
-44 44z"/>
</g>
</svg>
